PathFileType	4	(X/Y/Z)	/home/utkubuntu/opensim/opensim_mycode/release_code/bioimitation/imitation_envs/data/02905/02905_PRE/experimental_data/task.trc
DataRate	CameraRate	NumFrames	NumMarkers	Units	OrigDataRate	OrigDataStartFrame	OrigNumFrames
100.000000	100.000000	4	53	mm	100.000000	203	406
Frame#	Time	C7			CLAV			LANK			LASI			LBHD			LELB			LFHD			LFIN			LFMH			LHEE			LKNE			LKNI			LMED			LMET			LMIF			LPSI			LSHO			LTAD			LTHAP			LTHI			LTIAD			LTIB			LTOE			LTTU			LWRA			LWRB			RANK			RASI			RBAK			RBHD			RELB			RFHD			RFIN			RFMH			RHEE			RKNE			RKNI			RMED			RMET			RMIF			RPSI			RSHO			RTAD			RTHAP			RTHI			RTIAD			RTIB			RTOE			RTTU			RWRA			RWRB			STRN			T10			
		X1	Y1	Z1	X2	Y2	Z2	X3	Y3	Z3	X4	Y4	Z4	X5	Y5	Z5	X6	Y6	Z6	X7	Y7	Z7	X8	Y8	Z8	X9	Y9	Z9	X10	Y10	Z10	X11	Y11	Z11	X12	Y12	Z12	X13	Y13	Z13	X14	Y14	Z14	X15	Y15	Z15	X16	Y16	Z16	X17	Y17	Z17	X18	Y18	Z18	X19	Y19	Z19	X20	Y20	Z20	X21	Y21	Z21	X22	Y22	Z22	X23	Y23	Z23	X24	Y24	Z24	X25	Y25	Z25	X26	Y26	Z26	X27	Y27	Z27	X28	Y28	Z28	X29	Y29	Z29	X30	Y30	Z30	X31	Y31	Z31	X32	Y32	Z32	X33	Y33	Z33	X34	Y34	Z34	X35	Y35	Z35	X36	Y36	Z36	X37	Y37	Z37	X38	Y38	Z38	X39	Y39	Z39	X40	Y40	Z40	X41	Y41	Z41	X42	Y42	Z42	X43	Y43	Z43	X44	Y44	Z44	X45	Y45	Z45	X46	Y46	Z46	X47	Y47	Z47	X48	Y48	Z48	X49	Y49	Z49	X50	Y50	Z50	X51	Y51	Z51	X52	Y52	Z52	X53	Y53	Z53	

204	2.03	728.9439697265625	1447.885009765625	-270.4700012207028	832.22802734375	1351.180053710938	-267.9150085449216	709.5180053710938	76.8190002441407	-295.9620056152344	822.0460205078125	947.2899780273439	-374.2789916992185	760.9819946289062	1548.159057617188	-351.3089904785153	757.405029296875	1043.454956054688	-490.6310119628904	900.4650268554688	1625.97705078125	-334.4140014648434	845.5709838867188	774.2459716796876	-505.386993408203	854.8690185546875	36.25400161743169	-239.1419982910156	659.6099853515625	42.36899948120123	-257.8940124511719	771.8679809570312	461.8810119628907	-361.3070068359374	785.2440185546875	462.1969909667969	-245.9519958496093	724.343994140625	92.90699768066411	-218.0350036621093	813.22802734375	26.03199958801277	-328.7720031738281	792.2479858398438	73.47799682617193	-272.0830078125	663.0549926757812	961.2670288085939	-303.3450012207029	754.2579956054688	1371.819946289062	-437.6109924316403	845.958984375	537.0629882812501	-310.1929931640624	861.0670166015625	705.6199951171876	-325.2489929199217	781.1680297851562	559.2949829101564	-418.6499938964843	772.0759887695312	206.0599975585938	-275.4719848632812	731.1019897460938	285.7529907226564	-390.8399963378906	845.5659790039062	39.4430007934571	-284.1499938964844	812.6500244140625	381.9370117187501	-299.6789855957031	855.7919921875	818.3250122070314	-459.001007080078	808.2150268554688	814.8579711914064	-509.5889892578123	640.9940185546875	194.2949981689453	-133.8020019531249	824.1669921875	944.2230224609375	-133.5050048828123	672.6010131835938	1336.569946289062	-138.7769927978513	764.8099975585938	1539.344970703125	-190.7030029296872	689.9240112304688	1082.946044921875	-21.6399993896482	896.1909790039062	1615.401977539062	-209.6999969482418	795.885009765625	795.1849975585938	10.86800003051775	730.260986328125	72.92299652099614	-176.4940032958984	574.0659790039062	193.6860046386719	-171.0019989013671	909.135986328125	484.6730041503906	-114.9509963989257	912.5349731445312	479.5390014648438	-233.8059997558593	658.3410034179688	196.4199981689454	-215.6540069580078	687.9760131835938	93.6350021362305	-98.85800170898436	708.5919799804688	130.0690002441407	-152.9190063476562	665.281982421875	960.3369750976562	-197.3079986572263	762.0540161132812	1387.697021484375	-86.7689971923825	968.6859741210938	576.1890258789062	-156.9609985351561	918.5850219726562	742.43701171875	-147.5059967041014	880.2009887695312	584.8270263671875	-61.43899917602526	807.06298828125	302.1700134277344	-168.1340026855468	780.7540283203125	364.7839965820312	-65.98699951171866	722.1539916992188	83.80999755859378	-136.1029968261718	923.4329833984375	398.4590148925782	-165.5260009765624	800.031005859375	850.0230102539062	-36.18199920654278	749.8809814453125	839.7119750976562	11.98400020599384	856.7529907226562	1193.254028320312	-262.2609863281247	649.094970703125	1150.4599609375	-251.9730072021482	
205	2.04	739.3610229492188	1448.324951171875	-270.8399963378903	842.4949951171875	1351.447998046875	-268.1040039062497	709.5590209960938	77.1930007934571	-295.8450012207031	831.10302734375	947.2440185546876	-374.9989929199216	771.7520141601562	1548.659057617188	-351.3729858398434	774.0339965820312	1044.22998046875	-492.1940002441404	911.14697265625	1626.43798828125	-333.9179992675778	869.4089965820312	777.5570068359376	-506.4710083007811	854.8510131835938	36.21900177001958	-239.2830047607422	659.7520141601562	42.95399856567388	-257.7669982910156	773.2470092773438	462.2349853515626	-361.4840087890624	787.5659790039062	462.2420043945313	-246.1239929199218	724.60302734375	93.34600067138676	-218.0269927978515	813.1630249023438	25.99799919128425	-328.7959899902344	792.3820190429688	73.58300018310553	-272.1610107421875	672.635009765625	961.9229736328126	-302.7160034179685	765.0980224609375	1372.464965820312	-437.9939880371091	848.5120239257812	536.0560302734376	-311.1619873046874	867.447021484375	704.4500122070314	-326.3359985351561	783.2440185546875	559.5570068359376	-418.8280029296874	772.5469970703125	206.3000030517579	-275.6870117187499	731.27001953125	286.3070068359376	-390.8720092773437	845.583984375	39.38600158691413	-284.2569885253906	813.718017578125	381.9649963378907	-300.0849914550781	878.4229736328125	821.7960205078126	-460.0719909667967	830.781982421875	816.7990112304689	-510.480010986328	671.7509765625	185.4290008544922	-133.8209991455078	834.6829833984375	945.1110229492188	-134.3150024414061	682.4089965820312	1337.073974609375	-139.5330047607419	775.0900268554688	1539.465942382812	-190.8000030517575	697.6859741210938	1083.451049804688	-22.43400001525855	906.5330200195312	1615.578979492188	-209.2389984130856	802.1069946289062	795.1840209960938	10.07400035858172	767.0260009765625	69.34600067138676	-177.3220062255859	604.677001953125	181.4620056152344	-170.4490051269531	927.4569702148438	487.6440124511719	-116.3489990234374	929.18798828125	483.0490112304688	-235.0690002441405	688.1649780273438	188.5820007324219	-215.9490051269531	724.177978515625	87.84999847412112	-99.44100189208983	742.3590087890625	125.1569976806641	-153.5399932861328	675.3909912109375	960.969970703125	-196.7550048828123	771.93798828125	1387.79296875	-87.09100341796844	984.4190063476562	581	-159.2469940185545	931.3200073242188	746.0139770507812	-149.4759979248045	897.9019775390625	588.0130004882812	-61.98500061035143	832.156982421875	300.9630126953126	-169.3690032958984	804.8909912109375	361.3150024414062	-66.48999786376945	758.4979858398438	79.81300354003909	-136.761001586914	944.0679931640625	402.1050109863282	-167.5149993896484	806.8189697265625	850.0869750976562	-36.89400100707989	756.197998046875	839.7570190429688	10.81700038909931	866.7429809570312	1193.505004882812	-262.5899963378903	659.1019897460938	1151.02001953125	-252.3919982910154	
206	2.05	749.7659912109375	1448.641967773438	-271.2219848632809	852.7340087890625	1351.593017578125	-268.2980041503903	709.5819702148438	77.58699798583991	-295.7090148925781	840.0709838867188	947.0939941406251	-375.7460021972654	782.5399780273438	1549.069946289062	-351.4349975585934	790.5869750976562	1044.970947265625	-493.721984863281	921.8610229492188	1626.777954101562	-333.368011474609	893.176025390625	781.0079956054689	-507.2950134277342	854.8800048828125	36.22100067138677	-239.427001953125	659.8870239257812	43.56700134277349	-257.6499938964844	774.4760131835938	462.5820007324219	-361.5889892578124	789.8270263671875	462.2650146484376	-246.1920013427733	724.8809814453125	93.80500030517582	-217.9960021972656	813.0869750976562	25.96500015258797	-328.8089904785156	792.4949951171875	73.69599914550787	-272.22900390625	682.2119750976562	962.5930175781251	-301.8699951171873	775.8880004882812	1372.967041015625	-438.3819885253903	850.89697265625	534.9600219726564	-311.8940124511718	873.9299926757812	703.0640258789064	-327.5870056152342	785.2130126953125	559.7490234375001	-418.9259948730468	772.9940185546875	206.5509948730469	-275.8890075683593	731.1669921875	286.8980102539064	-390.8210144042968	845.594970703125	39.34000015258795	-284.35400390625	814.6669921875	382.0050048828126	-300.4630126953124	900.969970703125	825.4589843750001	-460.9509887695311	853.3569946289062	818.8920288085939	-511.2189941406248	703.0230102539062	176.2059936523438	-134.0690002441406	845.2139892578125	945.7949829101562	-135.0809936523436	692.1840209960938	1337.452026367188	-140.3000030517575	785.3510131835938	1539.452026367188	-190.8970031738278	705.5460205078125	1083.800048828125	-23.24699974060034	916.8679809570312	1615.597045898438	-208.7250061035153	808.385009765625	795.0579833984375	9.404999732971367	804.2639770507812	65.85099792480473	-178.3350067138672	636.0150146484375	168.8459930419922	-170.3309936523437	945.0980224609375	490.4649963378906	-117.6930007934569	945.1950073242188	486.1549987792969	-236.2290039062499	718.5650024414062	180.3899993896485	-216.4120025634765	760.85302734375	81.94899749755862	-100.2429962158203	776.6519775390625	120.1179962158203	-154.2960052490234	685.5390014648438	961.4199829101562	-196.0189971923826	781.7750244140625	1387.755981445312	-87.41799926757781	999.5640258789062	585.4849853515625	-161.636993408203	943.7730102539062	749.2869873046875	-151.4570007324217	915.291015625	591.1329956054688	-62.51900100707995	857.323974609375	299.5369873046876	-170.5670013427734	828.7570190429688	357.6809997558594	-67.05100250244132	795.239990234375	75.77400207519534	-137.6280059814453	964.1580200195312	405.6189880371094	-169.333999633789	813.6719970703125	849.9860229492188	-37.51399993896465	762.5540161132812	839.6690063476562	9.718000411987491	876.7059936523438	1193.6259765625	-262.9140014648435	669.1099853515625	1151.444946289062	-252.6750030517576	
207	2.06	760.1680297851562	1448.836059570312	-271.608001708984	862.9569702148438	1351.620971679688	-268.4930114746091	709.5919799804688	78.00199890136726	-295.5580139160156	848.9869995117188	946.8270263671876	-376.4849853515623	793.3460083007812	1549.385986328125	-351.4920043945309	807.0170288085938	1045.657958984375	-495.1830139160154	932.614013671875	1626.990966796875	-332.7730102539059	916.843994140625	784.6030273437501	-507.8590087890623	854.9619750976562	36.25999832153325	-239.572998046875	659.9949951171875	44.18500137329107	-257.4909973144531	775.6300048828125	462.9200134277344	-361.6249999999999	792.0999755859375	462.3190002441407	-246.2160034179686	725.1950073242188	94.27200317382817	-217.9239959716797	813.0009765625	25.93099975585945	-328.8099975585938	792.5800170898438	73.81800079345709	-272.2950134277344	691.7930297851562	963.2230224609376	-300.8789978027341	786.64599609375	1373.328002929688	-438.7669982910153	853.2310180664062	533.8209838867189	-312.4140014648436	880.4520263671875	701.5369873046876	-328.8989868164061	787.1339721679688	559.9310302734376	-418.928985595703	773.4340209960938	206.8170013427735	-276.0610046386718	730.916015625	287.519012451172	-390.6910095214843	845.5999755859375	39.30500030517585	-284.4440002441406	815.5349731445312	382.0589904785157	-300.7709960937499	923.3709716796875	829.3029785156251	-461.626007080078	875.9110107421875	821.1359863281251	-511.8009948730467	734.7739868164062	166.7830047607422	-134.5800018310547	855.7459716796875	946.2849731445312	-135.7790069580076	701.968994140625	1337.712036132812	-141.0599975585935	795.594970703125	1539.316040039062	-190.9940032958981	713.5130004882812	1084.005981445312	-24.08699989318823	927.2069702148438	1615.467041015625	-208.1699981689449	814.7459716796875	794.8150024414062	8.833000183105645	841.8989868164062	62.56200027465825	-179.4810028076172	667.969970703125	155.9570007324219	-170.7149963378906	962.0059814453125	493.093994140625	-118.9319992065429	960.5780029296875	488.7940063476563	-237.2579956054686	749.5869750976562	171.9799957275391	-217.0269927978515	797.9249877929688	76.06600189208987	-101.2409973144531	811.3939819335938	115.0810012817383	-155.1629943847656	695.708984375	961.7160034179688	-195.1529998779295	791.5780029296875	1387.598999023438	-87.74500274658172	1014.117980957031	589.593994140625	-164.1000061035155	955.89599609375	752.218017578125	-153.4660034179686	932.3369750976562	594.1309814453125	-63.03099822998033	882.5230102539062	297.9320068359376	-171.6799926757812	852.2100219726562	353.9880065917969	-67.67500305175773	832.3759765625	71.85099792480472	-138.6540069580078	983.6900024414062	408.9719848632813	-170.9259948730468	820.5969848632812	849.72802734375	-38.06800079345684	768.9760131835938	839.4669799804688	8.682999610901065	886.6530151367188	1193.619018554688	-263.2460021972653	679.1290283203125	1151.744995117188	-252.8309936523435	
